<svg id="Camada_1" data-name="Camada 1" xmlns="http://www.w3.org/2000/svg" viewBox="0 0 500 500"><defs><style>.cls-1{fill:#ff6cc0;}.cls-2{fill:#ed4aaf;}.cls-3{fill:#b72787;}.cls-4{fill:#23bb4c;}.cls-5{fill:#02a947;}</style></defs><g id="Tulipa"><path class="cls-1" d="M250,54.45c-22.2,53.91-155.41,200.86,0,303.41C405.41,255.31,272.2,108.36,250,54.45Z"/><path class="cls-1" d="M146.23,72.75C143.81,131,68.89,314.65,250,357.86,361,208.34,185.53,115.82,146.23,72.75Z"/><path class="cls-1" d="M353.77,72.75C356.19,131,431.11,314.65,250,357.86,139,208.34,314.47,115.82,353.77,72.75Z"/><path class="cls-2" d="M250,357.86c-107.29-70.8-77-162.76-40.68-230.67,14.11,12.62,28.36,26.74,40.68,42.37,12.32-15.63,26.57-29.75,40.68-42.37C327,195.1,357.29,287.06,250,357.86Z"/><path class="cls-3" d="M250,169.56c-37.89,48-57.79,110.43,0,188.3C307.79,280,287.89,217.58,250,169.56Z"/><path class="cls-4" d="M494.44,403.32C427.69,410.59,388.53,474,263.6,430.37q2.7-.39,5.29-.85c64.8-11.4,91.79-59.88,128.65-63.2-22.3-5.29-78.06,32.49-106.35,39.9-10.9,2.87-23.09,4.19-35.77,4.4,27.66-20.47,68.12-65.45,117.45-65.45C434.18,345.17,465.37,374.25,494.44,403.32Z"/><path class="cls-5" d="M494.44,403.32C427.69,410.59,388.53,474,263.6,430.37q2.7-.39,5.29-.85c31.2,8,79.05,16.51,112.08,4.46C411.91,422.69,451.45,387.81,494.44,403.32Z"/><path class="cls-4" d="M5.56,403.32C72.31,410.59,111.47,474,236.4,430.37q-2.7-.39-5.29-.85c-64.8-11.4-91.79-59.88-128.65-63.2,22.3-5.29,78.06,32.49,106.35,39.9,10.9,2.87,23.09,4.19,35.77,4.4-27.66-20.47-68.12-65.45-117.45-65.45C65.82,345.17,34.63,374.25,5.56,403.32Z"/><path class="cls-5" d="M5.56,403.32C72.31,410.59,111.47,474,236.4,430.37q-2.7-.39-5.29-.85c-31.2,8-79.05,16.51-112.08,4.46C88.09,422.69,48.55,387.81,5.56,403.32Z"/></g></svg>